<?xml version="1.0" standalone="no"?><!DOCTYPE svg PUBLIC "-//W3C//DTD SVG 1.1//EN" "http://www.w3.org/Graphics/SVG/1.1/DTD/svg11.dtd"><svg t="1569561947503" class="icon" viewBox="0 0 1024 1024" version="1.1" xmlns="http://www.w3.org/2000/svg" p-id="853" xmlns:xlink="http://www.w3.org/1999/xlink" width="200" height="200"><defs><style type="text/css"></style></defs><path d="M970.18887585 326.75157333c25.47651318 25.47651318 38.91382045 57.32215467 40.38959407 95.53692445v449.17888947c-1.39810133 38.21476978-14.83540859 70.06041125-40.38959407 95.53692445s-57.32215467 38.91382045-95.53692444 40.38959408H139.71668385c-38.21476978-1.39810133-70.06041125-14.83540859-95.53692444-40.38959408s-38.91382045-57.32215467-40.38959408-95.53692445V422.36617008c1.39810133-38.21476978 14.83540859-70.06041125 40.38959408-95.53692445s57.32215467-38.91382045 95.53692444-40.38959408h13.82566874c18.40833422-82.79866785 59.49697897-150.60658252 123.18826193-203.3460717 63.69128297-52.73948918 140.509184-80.15780978 230.45370311-82.33263407 89.86684682 2.097152 166.68474785 29.59314489 230.45370312 82.33263407 63.69128297 52.73948918 104.7799277 120.54740385 123.18826192 203.3460717h13.82566874c38.21476978 1.39810133 70.06041125 14.83540859 95.53692444 40.31192178z m-252.74565215-40.31192178c-14.13635792-44.58389808-40.54493867-80.54617125-79.14806992-107.80914725-38.60313125-27.262976-82.33263408-40.85562785-131.11083615-40.85562785s-92.58537718 13.67032415-131.11083615 40.85562785c-38.60313125 27.262976-64.9340397 63.14757689-79.14806993 107.80914725h420.51781215zM630.37257955 648.00419082c11.34015525-21.59289837 15.53445925-44.73924267 12.7382566-69.59437749-0.69905067-41.08864475-14.36937482-74.87609363-40.85562785-101.44001896s-60.35137422-40.15657718-101.44001897-40.85562785c-41.78769541 0.69905067-75.96350578 14.36937482-102.44975881 40.85562785s-40.15657718 60.35137422-40.85562785 101.44001896c0.69905067 27.57366518 8.15559111 51.49673245 22.29194903 71.69152949 14.13635792 20.19479703 31.84564148 37.36037452 53.12785067 51.49673243v94.5271846c0 20.50548622 5.98076682 36.97201303 18.01997274 49.39958045 12.03920592 12.42756741 28.66107733 18.56367882 49.94328652 18.56367881h12.73825659c21.20453689 0 37.90408059-6.2137837 49.94328653-18.56367881 12.03920592-12.34989511 18.01997275-28.81642192 18.01997273-49.39958045v-94.5271846c21.12686459-14.13635792 37.43804682-32.00098608 48.77820207-53.59388443z" fill="#BFCBD9" p-id="854"></path></svg>