<?xml version="1.0" standalone="no"?><!DOCTYPE svg PUBLIC "-//W3C//DTD SVG 1.1//EN" "http://www.w3.org/Graphics/SVG/1.1/DTD/svg11.dtd"><svg t="1569485561825" class="icon" viewBox="0 0 1024 1024" version="1.1" xmlns="http://www.w3.org/2000/svg" p-id="793" xmlns:xlink="http://www.w3.org/1999/xlink" width="200" height="200"><defs><style type="text/css"></style></defs><path d="M440.26111199 953.89274264H124.92065079c-57.04647194 0-103.46721197-46.4219806-103.46721195-103.46721197v-757.54707542c0-57.04647194 46.4219806-103.46845256 103.46721195-103.46845255h679.93146912c57.04523136 0 103.46721197 46.4219806 103.46721196 103.46845255V472.25120237c0 24.49563075-19.84710563 44.34273638-44.34397697 44.34273638-24.49563075 0-44.34273638-19.84710563-44.34273639-44.34273638V92.87721465c0-8.15569898-6.62604021-14.78173919-14.7804986-14.78173919H124.92065079c-8.15569898 0-14.7804986 6.62604021-14.78049858 14.78173919v757.54707543c0 8.1408118 6.62604021 14.7804986 14.78049858 14.78049859h315.3404612c24.49563075 0 44.34273638 19.86199282 44.34273639 44.34397698s-19.84710563 44.34397698-44.34273639 44.34397699z" fill="#BFCBD9" p-id="794"></path><path d="M747.43098702 981.06558642c-117.08030673 0-212.33475213-95.23955821-212.33475214-212.30497775 0-117.09395331 95.2544454-212.34839872 212.33475214-212.34839874s212.33475213 95.2544454 212.33475212 212.34839874c0 56.9881638-22.1571013 110.31035702-62.38725141 150.14971837-39.65203089 40.01180466-92.97422412 62.15525937-149.94750071 62.15525938z m0-365.53014151c-84.48604456 0-153.21027656 68.7229914-153.21027657 153.22392315 0 84.47115735 68.7229914 153.18050217 153.21027657 153.18050217 41.08120114 0 79.49139226-15.93549643 108.14427084-44.86254744 29.12926867-28.84020907 45.06476511-67.23675359 45.06476511-108.31795473 0.0012406-84.49969114-68.7229914-153.22392315-153.20903595-153.22392315z" fill="#BFCBD9" p-id="795"></path><path d="M986.38279448 1037.27465392a29.46671165 29.46671165 0 0 1-20.90161493-8.66062286l-96.36602227-96.36602227c-11.54749714-11.54749714-11.54749714-30.25573273 0-41.80322986 11.54749714-11.54749714 30.25573273-11.54749714 41.80322987 0l96.36602226 96.36602226c11.54749714 11.54749714 11.54749714 30.25449213 0 41.80322987a29.46671165 29.46671165 0 0 1-20.90161493 8.66062286zM719.8611515 316.44931413H224.69335841c-16.32504457 0-29.56223779-13.23719322-29.56223779-29.56223779s13.23719322-29.56223779 29.56223779-29.56223778h495.16779309c16.32504457 0 29.56223779 13.23719322 29.56223777 29.56223778s-13.23719322 29.56223779-29.56223777 29.56223779zM719.8611515 471.65075236H224.69335841c-16.32504457 0-29.56223779-13.23719322-29.56223779-29.56223778s13.23719322-29.56223779 29.56223779-29.56223779h495.16779309c16.32504457 0 29.56223779 13.23719322 29.56223777 29.56223779 0 16.32628516-13.23719322 29.56223779-29.56223777 29.56223778zM472.27725495 626.4055749H224.69335841c-16.32504457 0-29.56223779-13.23719322-29.56223779-29.56223777s13.23719322-29.56223779 29.56223779-29.5622378h247.58389654c16.32504457 0 29.56223779 13.23719322 29.56223779 29.5622378s-13.23719322 29.56223779-29.56223779 29.56223777z" fill="#BFCBD9" p-id="796"></path></svg>