<?xml version="1.0" standalone="no"?><!DOCTYPE svg PUBLIC "-//W3C//DTD SVG 1.1//EN" "http://www.w3.org/Graphics/SVG/1.1/DTD/svg11.dtd"><svg t="1569305331467" class="icon" viewBox="0 0 1045 1024" version="1.1" xmlns="http://www.w3.org/2000/svg" p-id="785" xmlns:xlink="http://www.w3.org/1999/xlink" width="204.1015625" height="200"><defs><style type="text/css"></style></defs><path d="M211.02516268 154.87126613l492.78460479 0 0 61.59792214-492.78460479 0 0-61.59792214ZM209.38296213 278.67200107l492.78460479 0 2e-8 61.59792213-492.78460481 0 0-61.59792213ZM87.83055146 30.671376l739.17506027 0 0 492.78337387 61.59792214 0 0-492.78337387c0-34.01930028-27.57862186-61.59792213-61.59792214-61.59792213l-739.17506027 0c-34.01930028 0-61.59792213 27.57862186-61.59792214 61.59792213l0 862.37090347c0 34.01930028 27.57862186 61.59792213 61.59792214 61.59792213l431.18545174 0 0-61.59792213-431.18545174 0L87.83055146 30.671376zM210.61492053 525.05752747l0 61.59792213 149.81600107 0c0-21.40650987 3.1353344-42.07754028 8.94525013-61.59792213L210.61492053 525.05752747zM462.46664746 401.86168427L209.38296213 401.86168427l0 61.59792213 187.24659414 0C413.97676373 438.5925248 436.4255104 417.5519072 462.46664746 401.86168427zM928.86147093 897.6239328L787.6174368 758.05659413c32.47319252-37.7410464 52.10814613-86.84444587 52.10814614-140.53812266 0-119.06878293-96.52517547-215.59272533-215.59149441-215.59272534-119.06755093 0-215.59272533 96.52394347-215.59272533 215.59272534 0 119.06631894 96.52517547 215.59272533 215.59272533 215.59272533 43.10622506 0 83.25328747-12.65837333 116.9399584-34.45171732l144.23153386 142.52157545c12.02761067 12.02761067 31.52828053 12.02761067 43.55589014 0C940.8878496 929.15221333 940.8878496 909.65277547 928.86147093 897.6239328zM470.13805227 617.51847147c0-85.04948268 68.9477856-153.99480427 153.99603626-153.99480426 85.04701867 0 153.99357228 68.9453216 153.99357228 153.99480426 0 85.04701867-68.94655361 153.99480427-153.99357228 153.99480426C539.08583787 771.51327573 470.13805227 702.56549013 470.13805227 617.51847147z" p-id="786"></path></svg>